<svg version="1.1" xmlns="http://www.w3.org/2000/svg" viewBox="0 0 430 300">
	<path class="path1"
		  d="M 291.81225,0.57657577 C 403.84867,1.1854758 410.85094,1.1854758 414.19986,3.3165758 c 6.69783,4.2623 12.78677,14.9179002 14.309,24.9647002 0.60889,3.0444 0.60889,70.631605 0,71.240505 0,0.30445 -1.52223,0.913339 -3.04447,1.217779 -7.61117,1.82669 -14.309,9.43786 -16.44013,18.87571 -1.82668,7.30672 -1.52223,17.35347 1.21779,24.66018 2.43558,7.00228 9.43785,14.00456 14.91789,15.22234 l 3.65337,0.91335 0,36.22916 c 0.30444,52.97376 0,70.93612 -0.30445,74.89393 -0.91334,6.39338 -4.87115,15.83123 -8.52451,20.09348 -6.08894,6.69783 -10.35119,7.61117 -30.14023,7.91562 -9.43785,0 -17.65792,0 -17.65792,-0.30445 -0.30444,-0.30444 -0.30444,-8.22006 -0.60889,-17.96236 0,-9.43785 -0.30445,-18.2668 -0.91334,-19.48459 -0.60889,-1.82668 -1.82668,-2.13113 -5.1756,-2.13113 -8.22006,0 -7.91562,-0.30445 -7.91562,21.00683 l 0,18.8757 -28.618,0 -0.30444,-6.69783 c 0,-3.34891 0,-11.56898 0.30444,-17.65791 0,-14.00456 -0.60889,-15.52679 -7.61116,-15.52679 -3.95781,0 -5.1756,0.30445 -5.7845,2.43557 -0.60889,1.21779 -0.91333,10.35119 -0.91333,19.78905 l 0,17.65791 -28.618,0 0,-11.56898 0,-18.2668 c 0,-8.52452 -0.91335,-10.04675 -6.69783,-10.04675 -7.30673,0 -7.61117,0.6089 -7.61117,21.92017 l 0,17.96236 -28.618,0 0,-14.00455 c -0.30444,-7.61117 0,-16.13568 0,-18.57125 0.30445,-5.48005 -1.21779,-7.00228 -7.00227,-7.30673 -7.30673,-0.30445 -7.30673,0 -7.30673,21.00683 l 0,18.57125 -7.91561,0.6089 -14.30901,0 -6.39338,-0.6089 0,-18.26681 c 0,-12.78676 -0.30445,-18.8757 -0.91334,-19.78904 -0.60889,-0.91333 -3.34892,-1.52223 -6.39338,-1.52223 -3.95781,0 -5.1756,0.30445 -6.08894,2.43557 -0.30444,1.21779 -0.91334,10.35119 -0.91334,19.78905 l 0,17.65791 -14.309,0 c -10.65564,0 -14.309,-0.60889 -14.309,-1.82668 l 0,-17.35346 c 0,-8.82896 -0.30444,-17.04903 -0.91334,-18.26682 -0.60889,-2.13112 -1.82668,-2.43557 -5.17559,-2.43557 -8.22006,0 -8.22006,-0.30445 -8.22006,21.00683 l 0,18.57125 -9.43786,0.6089 -14.30899,0 -4.5667,-0.6089 0,-17.96236 c 0,-21.00682 -0.30445,-21.61572 -7.61118,-21.61572 -3.9578,0 -5.17559,0.30445 -5.78448,2.43557 -0.6089,1.21779 -0.91335,10.35119 -0.91335,19.78905 l 0,17.65791 -28.617996,0 0,-18.57126 c 0,-12.78676 -0.30444,-18.8757 -1.21778,-19.78904 -0.6089,-0.91333 -3.04447,-1.52223 -5.78449,-1.52223 -7.00228,0 -7.30672,0.6089 -7.30672,21.31127 0,9.7423 0,17.65792 -0.30445,17.96237 -0.30445,0.30444 -8.22006,0.60889 -17.35347,0.60889 -21.92017,0 -26.48687,-1.52223 -32.8802495,-10.96008 -6.39339002,-9.43786 -6.39339002,-7.00228 -6.39339002,-71.24055 -0.30444,-46.58037 -0.30444,-57.54046 0.60890002,-57.54046 8.22006,-0.60889 16.4401195,-8.82896 19.1801495,-19.18014 1.52223,-6.39339 1.21779,-17.04902 -0.6089,-23.13796 -2.74001,-8.52451 -11.5689695,-17.35347 -17.9623495,-17.35347 -1.52224002,0 -1.52224002,-1.826679 -1.52224002,-35.315819 0,-30.444675 0.30444,-35.924775 1.52224002,-41.404775 2.13112,-8.8289 6.08893,-14.6134002 11.8734195,-18.8757002 3.9578,-2.74 6.08893,-3.3489 13.39566,-3.65330003 15.83123,-0.9134 145.525556,-0.9134 264.868706,-0.3045 z M 301.2501,82.777211 c -0.6089,1.21778 -0.91335,24.660179 -0.91335,57.540439 0,49.01593 0,55.71376 1.2178,57.54044 1.21778,1.82668 5.17559,1.82668 27.4002,1.82668 22.22462,0 25.87798,0 27.09577,-1.82668 1.21779,-1.82668 1.52223,-8.82895 1.52223,-57.84489 0,-49.015929 -0.30444,-56.018209 -1.52223,-57.844889 -2.13112,-2.74002 -53.58264,-2.43557 -54.80042,0.6089 z m -113.86311,-0.6089 c -1.21778,1.82668 -1.52223,9.13341 -1.52223,57.844889 0,49.32038 0.30445,56.01821 1.52223,57.84489 2.13113,3.04448 52.36485,2.74003 54.49598,0 0.91335,-1.82668 1.21779,-9.1334 1.21779,-57.84489 0,-48.407039 -0.30444,-56.018209 -1.52224,-57.844889 -1.82668,-2.74002 -52.0604,-2.74002 -54.19153,0 z M 73.523904,81.254971 c -0.91334,0.60889 -0.91334,1.82668 -0.6089,2.74002 0.30445,1.21779 0.30445,1.21779 -0.30444,0.6089 -0.91335,-0.6089 -0.91335,12.78676 -0.91335,55.409309 0,48.40704 0.30445,56.32266 1.21779,57.84489 2.13113,3.04448 52.364846,2.74003 54.495976,0 1.21778,-1.82668 1.21778,-8.52451 1.21778,-57.84489 0,-48.711479 0,-56.018209 -1.21778,-57.844889 -1.21779,-1.82668 -5.1756,-1.82668 -27.09577,-1.82668 -14.004546,0 -26.182416,0.30445 -26.791306,0.91334 z"/>
</svg>
