<svg version="1.1" xmlns="http://www.w3.org/2000/svg" viewBox="0 0 430 300">
	<g transform="translate(90,0)">
		<path class="path1"
			  d="M 5.2707,197.95216 C 2.0903,193.40872 0.5,193.63502 0.5,198.63303 l 0,34.07666 c 0,16.81101 11.8133,32.14551 35.4397,46.00351 23.62637,13.8579 51.56924,20.7868 83.8286,20.7868 31.80477,0 59.63416,-6.9289 83.48783,-20.7868 23.85367,-13.858 35.78051,-29.1925 35.78051,-46.00351 l 0,-34.07666 c 0,-1.81731 -0.45425,-2.95309 -1.36307,-3.40733 -0.90882,-0.45425 -2.0446,0.45457 -3.40766,2.72646 -7.26958,11.81336 -21.46831,21.58212 -42.59584,29.30628 -21.12753,7.72416 -45.09467,11.58607 -71.90176,11.58607 -26.8071,0 -50.77425,-3.86191 -71.90178,-11.58607 C 26.739,219.53428 12.5403,209.76552 5.2707,197.95216 z M 4.5892,111.3964 c -1.8173,-3.63496 -3.1797,-3.63496 -4.0885,0 l 0,39.52894 c 0,15.44797 11.586,28.39711 34.75815,38.8474 23.17212,10.45029 51.34229,15.67526 84.51014,15.67526 32.71359,0 60.76993,-5.22497 84.16935,-15.67526 23.39943,-10.45029 35.09897,-23.39943 35.09897,-38.8474 l 0,-39.52894 c 0,-4.54344 -1.59035,-4.54344 -4.77073,0 -6.81534,10.45029 -20.90024,18.96946 -42.25507,25.5575 -21.35481,6.58804 -45.43578,9.88224 -72.24287,9.88224 -26.80709,0 -50.88805,-3.29419 -72.24288,-9.88224 C 26.17093,130.36586 11.8587,121.84669 4.5892,111.3964 z M 119.76899,-0.37507 c -32.71361,0 -60.76995,4.42998 -84.16938,13.2899 C 12.2002,21.77477 0.5007,32.33854 0.5007,44.60614 l 0,21.80907 c 0,13.17642 11.6995,24.42172 35.09891,33.73589 23.39943,9.31418 51.45577,13.97143 84.16938,13.97143 32.71359,0 60.76993,-4.65725 84.16935,-13.97143 23.39943,-9.31417 35.09897,-20.55947 35.09897,-33.73589 l 0,-21.80907 c 0,-12.2676 -11.69954,-22.83137 -35.09897,-31.69131 -23.39942,-8.85992 -51.45576,-13.2899 -84.16936,-13.2899 z"/>
	</g>
</svg>
