<svg version="1.1" xmlns="http://www.w3.org/2000/svg" viewBox="0 0 430 300">
	<g transform="translate(40,0)">
	<path class="path1"
		  d="m 352.46233,188.63185 -70.04051,-189.00377 -211.881322,0 L 0.4999975,188.63185 28.656997,299.5 l 295.648343,0 z m -27.45307,17.95009 -19.35793,74.96796 -258.340332,0 -19.3579,-74.96796 297.056162,0 z M 94.825908,243.88995 c 0,-3.75439 -1.40684,-7.03996 -4.22253,-9.85566 -2.81571,-2.8157 -6.10056,-4.22353 -9.85495,-4.22353 -3.75443,0 -7.15683,1.40783 -10.20723,4.22353 -3.0505,2.8157 -4.3411,6.10057 -3.872,9.85495 0.4692,3.75436 1.7598,7.15676 3.8716,10.20726 2.1118,3.0505 5.5142,4.3411 10.20693,3.872 4.6927,-0.4692 7.97756,-1.7599 9.8546,-3.8716 1.87701,-2.1118 3.28486,-5.5142 4.22354,-10.20694 z"/>
	</g>
</svg>
