<svg style="position: absolute; width: 0; height: 0; overflow: hidden;" version="1.1" xmlns="http://www.w3.org/2000/svg" xmlns:xlink="http://www.w3.org/1999/xlink">
<defs>
<symbol id="cachify-icon-hdd" viewBox="0 0 430 300">
<path class="path1" d="m 352.46233,188.63185 -70.04051,-189.00377 -211.881322,0 L 0.4999975,188.63185 28.656997,299.5 l 295.648343,0 z m -27.45307,17.95009 -19.35793,74.96796 -258.340332,0 -19.3579,-74.96796 297.056162,0 z M 94.825908,243.88995 c 0,-3.75439 -1.40684,-7.03996 -4.22253,-9.85566 -2.81571,-2.8157 -6.10056,-4.22353 -9.85495,-4.22353 -3.75443,0 -7.15683,1.40783 -10.20723,4.22353 -3.0505,2.8157 -4.3411,6.10057 -3.872,9.85495 0.4692,3.75436 1.7598,7.15676 3.8716,10.20726 2.1118,3.0505 5.5142,4.3411 10.20693,3.872 4.6927,-0.4692 7.97756,-1.7599 9.8546,-3.8716 1.87701,-2.1118 3.28486,-5.5142 4.22354,-10.20694 z"></path>
</symbol>

<symbol id="cachify-icon-apc" viewBox="0 0 430 300">
<path class="path1" d="M 137.3055,299.42342 C 25.269084,298.81452 18.266808,298.81452 14.917893,296.68342 8.2200633,292.42112 2.1311276,281.76552 0.60889359,271.71872 0,268.67432 0,201.08711 0.60889359,200.47821 c 0,-0.30445 1.52223401,-0.91334 3.04446791,-1.21778 7.6111695,-1.82669 14.3089995,-9.43786 16.4401265,-18.87571 1.826681,-7.30672 1.522234,-17.35347 -1.217787,-24.66018 C 16.440127,148.72226 9.4378506,141.71998 3.9578083,140.5022 L 0.3044468,139.58885 V 103.35969 C 0,50.385935 0.3044468,32.423575 0.60889359,28.465765 1.522234,22.072385 5.4800423,12.634535 9.1334039,8.3722853 15.22234,1.6744553 19.484594,0.76111531 39.273636,0.45666531 c 9.437851,0 17.657914,0 17.657914,0.30445 0.304447,0.30443999 0.304447,8.22005999 0.608893,17.96235969 0,9.43785 0.304448,18.2668 0.913341,19.48459 0.608893,1.82668 1.826681,2.13113 5.175595,2.13113 8.220062,0 7.91562,0.30445 7.91562,-21.00683 V 0.45666531 H 100.163 l 0.30444,6.69782999 c 0,3.3489097 0,11.5689797 -0.30444,17.6579097 0,14.00456 0.60889,15.52679 7.61116,15.52679 3.95781,0 5.1756,-0.30445 5.7845,-2.43557 0.60889,-1.21779 0.91333,-10.35119 0.91333,-19.78905 V 0.45666531 h 28.618 v 11.56897969 18.2668 c 0,8.52452 0.91335,10.04675 6.69783,10.04675 7.30673,0 7.61117,-0.6089 7.61117,-21.92017 V 0.45666531 h 28.618 V 14.461215 c 0.30444,7.61117 0,16.13568 0,18.57125 -0.30445,5.48005 1.21779,7.00228 7.00227,7.30673 7.30673,0.30445 7.30673,0 7.30673,-21.00683 V 0.76111531 l 7.91561,-0.6089 h 14.30901 l 6.39338,0.6089 V 19.027925 c 0,12.78676 0.30445,18.8757 0.91334,19.78904 0.60889,0.91333 3.34892,1.52223 6.39338,1.52223 3.95781,0 5.1756,-0.30445 6.08894,-2.43557 0.30444,-1.21779 0.91334,-10.35119 0.91334,-19.78905 V 0.45666531 h 14.309 c 10.65564,0 14.309,0.60888999 14.309,1.82667999 V 19.636805 c 0,8.82896 0.30444,17.04903 0.91334,18.26682 0.60889,2.13112 1.82668,2.43557 5.17559,2.43557 8.22006,0 8.22006,0.30445 8.22006,-21.00683 V 0.76111531 l 9.43786,-0.6089 h 14.30899 l 4.5667,0.6089 V 18.723475 c 0,21.00682 0.30445,21.61572 7.61118,21.61572 3.9578,0 5.17559,-0.30445 5.78448,-2.43557 0.6089,-1.21779 0.91335,-10.35119 0.91335,-19.78905 V 0.45666531 h 28.618 V 19.027925 c 0,12.78676 0.30444,18.8757 1.21778,19.78904 0.6089,0.91333 3.04447,1.52223 5.78449,1.52223 7.00228,0 7.30672,-0.6089 7.30672,-21.31127 0,-9.7422997 0,-17.6579197 0.30445,-17.9623697 0.30445,-0.30443999 8.22006,-0.60888999 17.35347,-0.60888999 21.92017,0 26.48687,1.52222999 32.88025,10.96007969 6.39339,9.43786 6.39339,7.00228 6.39339,71.24055 0.30444,46.580365 0.30444,57.540455 -0.6089,57.540455 -8.22006,0.60889 -16.44012,8.82896 -19.18015,19.18014 -1.52223,6.39339 -1.21779,17.04902 0.6089,23.13796 2.74001,8.52451 11.56897,17.35347 17.96235,17.35347 1.52224,0 1.52224,1.82668 1.52224,35.31582 0,30.44468 -0.30444,35.92478 -1.52224,41.40478 -2.13112,8.8289 -6.08893,14.6134 -11.87342,18.8757 -3.9578,2.74 -6.08893,3.3489 -13.39566,3.6533 -15.83123,0.9134 -145.52556,0.9134 -264.86871,0.3045 z m -9.43785,-82.20064 c 0.6089,-1.21778 0.91335,-24.66018 0.91335,-57.54044 0,-49.01593 0,-55.71376 -1.2178,-57.54044 -1.21778,-1.82668 -5.17559,-1.82668 -27.4002,-1.82668 -22.224619,0 -25.877982,0 -27.095767,1.82668 -1.217792,1.82668 -1.522234,8.82895 -1.522234,57.84489 0,49.01593 0.304442,56.01821 1.522234,57.84489 2.131122,2.74002 53.582637,2.43557 54.800417,-0.6089 z m 113.86311,0.6089 c 1.21778,-1.82668 1.52223,-9.13341 1.52223,-57.84489 0,-49.32038 -0.30445,-56.01821 -1.52223,-57.84489 -2.13113,-3.044475 -52.36485,-2.740025 -54.49598,0 -0.91335,1.82668 -1.21779,9.1334 -1.21779,57.84489 0,48.40704 0.30444,56.01821 1.52224,57.84489 1.82668,2.74002 52.0604,2.74002 54.19153,0 z m 113.86309,0.91334 c 0.91334,-0.60889 0.91334,-1.82668 0.6089,-2.74002 -0.30445,-1.21779 -0.30445,-1.21779 0.30444,-0.6089 0.91335,0.6089 0.91335,-12.78676 0.91335,-55.40931 0,-48.40704 -0.30445,-56.32266 -1.21779,-57.84489 -2.13113,-3.044475 -52.36485,-2.740025 -54.49598,0 -1.21778,1.82668 -1.21778,8.52451 -1.21778,57.84489 0,48.71148 0,56.01821 1.21778,57.84489 1.21779,1.82668 5.1756,1.82668 27.09577,1.82668 14.00455,0 26.18242,-0.30445 26.79131,-0.91334 z"></path>
</symbol>

<symbol id="cachify-icon-db" viewBox="0 0 430 300">
<path class="path1" d="m 233.82911,101.61027 c 3.18038,4.54344 4.77073,4.31714 4.77073,-0.68087 V 66.85274 c 0,-16.81104 -11.81335,-32.14555 -35.43973,-46.00351 C 179.53374,6.99128 151.59087,0.06246 119.33151,0.06246 87.52674,0.06246 59.697348,6.99128 35.843681,20.84923 11.990015,34.70719 0.06318153,50.0417 0.06318153,66.85274 v 34.07666 c 0,1.81731 0.45424537,2.95309 1.36306677,3.40733 0.9088212,0.45425 2.0446,-0.45457 3.4076666,-2.72646 C 12.10349,89.79691 26.302215,80.02815 47.429749,72.30399 68.557282,64.57983 92.524424,60.71792 119.33151,60.71792 c 26.80709,0 50.77424,3.86191 71.90177,11.58607 21.12753,7.72416 35.32626,17.49292 42.59583,29.30628 z m 0.68154,86.55576 c 1.81731,3.63496 3.1797,3.63496 4.08851,0 v -39.52894 c 0,-15.44797 -11.58606,-28.39711 -34.7582,-38.8474 -23.17212,-10.45029 -51.34229,-15.67526 -84.51013,-15.67526 -32.713597,0 -60.769939,5.22497 -84.169364,15.67526 C 11.762041,120.23998 0.0625,133.18912 0.0625,148.63709 v 39.52894 c 0,4.54344 1.5903546,4.54344 4.7707334,0 6.8153336,-10.45029 20.9002416,-18.96946 42.2550666,-25.5575 21.354825,-6.58804 45.435783,-9.88224 72.24287,-9.88224 26.80709,0 50.88805,3.29419 72.24288,9.88224 21.35483,6.58804 35.66702,15.10721 42.9366,25.5575 z M 119.33083,299.9375 c 32.7136,0 60.76994,-4.42998 84.16937,-13.2899 23.39942,-8.85994 35.09896,-19.42371 35.09896,-31.69131 v -21.80907 c 0,-13.17642 -11.69954,-24.42172 -35.09896,-33.73589 -23.39943,-9.31418 -51.45577,-13.97143 -84.16937,-13.97143 -32.713597,0 -60.769939,4.65725 -84.169364,13.97143 C 11.762041,208.7255 0.0625,219.9708 0.0625,233.14722 v 21.80907 c 0,12.2676 11.699541,22.83137 35.098966,31.69131 23.399425,8.85992 51.455767,13.2899 84.169364,13.2899 z"></path>
</symbol>

<symbol id="cachify-icon-memcached" viewBox="0 0 430 300">
<path class="path1" d="M 137.3055,299.42342 C 25.269084,298.81452 18.266808,298.81452 14.917893,296.68342 8.2200633,292.42112 2.1311276,281.76552 0.60889359,271.71872 0,268.67432 0,201.08711 0.60889359,200.47821 c 0,-0.30445 1.52223401,-0.91334 3.04446791,-1.21778 7.6111695,-1.82669 14.3089995,-9.43786 16.4401265,-18.87571 1.826681,-7.30672 1.522234,-17.35347 -1.217787,-24.66018 C 16.440127,148.72226 9.4378506,141.71998 3.9578083,140.5022 L 0.3044468,139.58885 V 103.35969 C 0,50.385935 0.3044468,32.423575 0.60889359,28.465765 1.522234,22.072385 5.4800423,12.634535 9.1334039,8.3722853 15.22234,1.6744553 19.484594,0.76111531 39.273636,0.45666531 c 9.437851,0 17.657914,0 17.657914,0.30445 0.304447,0.30443999 0.304447,8.22005999 0.608893,17.96235969 0,9.43785 0.304448,18.2668 0.913341,19.48459 0.608893,1.82668 1.826681,2.13113 5.175595,2.13113 8.220062,0 7.91562,0.30445 7.91562,-21.00683 V 0.45666531 H 100.163 l 0.30444,6.69782999 c 0,3.3489097 0,11.5689797 -0.30444,17.6579097 0,14.00456 0.60889,15.52679 7.61116,15.52679 3.95781,0 5.1756,-0.30445 5.7845,-2.43557 0.60889,-1.21779 0.91333,-10.35119 0.91333,-19.78905 V 0.45666531 h 28.618 v 11.56897969 18.2668 c 0,8.52452 0.91335,10.04675 6.69783,10.04675 7.30673,0 7.61117,-0.6089 7.61117,-21.92017 V 0.45666531 h 28.618 V 14.461215 c 0.30444,7.61117 0,16.13568 0,18.57125 -0.30445,5.48005 1.21779,7.00228 7.00227,7.30673 7.30673,0.30445 7.30673,0 7.30673,-21.00683 V 0.76111531 l 7.91561,-0.6089 h 14.30901 l 6.39338,0.6089 V 19.027925 c 0,12.78676 0.30445,18.8757 0.91334,19.78904 0.60889,0.91333 3.34892,1.52223 6.39338,1.52223 3.95781,0 5.1756,-0.30445 6.08894,-2.43557 0.30444,-1.21779 0.91334,-10.35119 0.91334,-19.78905 V 0.45666531 h 14.309 c 10.65564,0 14.309,0.60888999 14.309,1.82667999 V 19.636805 c 0,8.82896 0.30444,17.04903 0.91334,18.26682 0.60889,2.13112 1.82668,2.43557 5.17559,2.43557 8.22006,0 8.22006,0.30445 8.22006,-21.00683 V 0.76111531 l 9.43786,-0.6089 h 14.30899 l 4.5667,0.6089 V 18.723475 c 0,21.00682 0.30445,21.61572 7.61118,21.61572 3.9578,0 5.17559,-0.30445 5.78448,-2.43557 0.6089,-1.21779 0.91335,-10.35119 0.91335,-19.78905 V 0.45666531 h 28.618 V 19.027925 c 0,12.78676 0.30444,18.8757 1.21778,19.78904 0.6089,0.91333 3.04447,1.52223 5.78449,1.52223 7.00228,0 7.30672,-0.6089 7.30672,-21.31127 0,-9.7422997 0,-17.6579197 0.30445,-17.9623697 0.30445,-0.30443999 8.22006,-0.60888999 17.35347,-0.60888999 21.92017,0 26.48687,1.52222999 32.88025,10.96007969 6.39339,9.43786 6.39339,7.00228 6.39339,71.24055 0.30444,46.580365 0.30444,57.540455 -0.6089,57.540455 -8.22006,0.60889 -16.44012,8.82896 -19.18015,19.18014 -1.52223,6.39339 -1.21779,17.04902 0.6089,23.13796 2.74001,8.52451 11.56897,17.35347 17.96235,17.35347 1.52224,0 1.52224,1.82668 1.52224,35.31582 0,30.44468 -0.30444,35.92478 -1.52224,41.40478 -2.13112,8.8289 -6.08893,14.6134 -11.87342,18.8757 -3.9578,2.74 -6.08893,3.3489 -13.39566,3.6533 -15.83123,0.9134 -145.52556,0.9134 -264.86871,0.3045 z m -9.43785,-82.20064 c 0.6089,-1.21778 0.91335,-24.66018 0.91335,-57.54044 0,-49.01593 0,-55.71376 -1.2178,-57.54044 -1.21778,-1.82668 -5.17559,-1.82668 -27.4002,-1.82668 -22.224619,0 -25.877982,0 -27.095767,1.82668 -1.217792,1.82668 -1.522234,8.82895 -1.522234,57.84489 0,49.01593 0.304442,56.01821 1.522234,57.84489 2.131122,2.74002 53.582637,2.43557 54.800417,-0.6089 z m 113.86311,0.6089 c 1.21778,-1.82668 1.52223,-9.13341 1.52223,-57.84489 0,-49.32038 -0.30445,-56.01821 -1.52223,-57.84489 -2.13113,-3.044475 -52.36485,-2.740025 -54.49598,0 -0.91335,1.82668 -1.21779,9.1334 -1.21779,57.84489 0,48.40704 0.30444,56.01821 1.52224,57.84489 1.82668,2.74002 52.0604,2.74002 54.19153,0 z m 113.86309,0.91334 c 0.91334,-0.60889 0.91334,-1.82668 0.6089,-2.74002 -0.30445,-1.21779 -0.30445,-1.21779 0.30444,-0.6089 0.91335,0.6089 0.91335,-12.78676 0.91335,-55.40931 0,-48.40704 -0.30445,-56.32266 -1.21779,-57.84489 -2.13113,-3.044475 -52.36485,-2.740025 -54.49598,0 -1.21778,1.82668 -1.21778,8.52451 -1.21778,57.84489 0,48.71148 0,56.01821 1.21778,57.84489 1.21779,1.82668 5.1756,1.82668 27.09577,1.82668 14.00455,0 26.18242,-0.30445 26.79131,-0.91334 z"></path>
</symbol>
</defs>
</svg>