<svg style="position: absolute; width: 0; height: 0; overflow: hidden;" version="1.1" xmlns="http://www.w3.org/2000/svg" xmlns:xlink="http://www.w3.org/1999/xlink">
<defs>
<symbol id="cachify-icon-hdd" viewBox="0 0 430 300">
<path class="path1" d="m 352.46233,188.63185 -70.04051,-189.00377 -211.881322,0 L 0.4999975,188.63185 28.656997,299.5 l 295.648343,0 z m -27.45307,17.95009 -19.35793,74.96796 -258.340332,0 -19.3579,-74.96796 297.056162,0 z M 94.825908,243.88995 c 0,-3.75439 -1.40684,-7.03996 -4.22253,-9.85566 -2.81571,-2.8157 -6.10056,-4.22353 -9.85495,-4.22353 -3.75443,0 -7.15683,1.40783 -10.20723,4.22353 -3.0505,2.8157 -4.3411,6.10057 -3.872,9.85495 0.4692,3.75436 1.7598,7.15676 3.8716,10.20726 2.1118,3.0505 5.5142,4.3411 10.20693,3.872 4.6927,-0.4692 7.97756,-1.7599 9.8546,-3.8716 1.87701,-2.1118 3.28486,-5.5142 4.22354,-10.20694 z"></path>
</symbol>

<symbol id="cachify-icon-apc" viewBox="0 0 430 300">
<path class="path1" d="M 291.81225,0.57657577 C 403.84867,1.1854758 410.85094,1.1854758 414.19986,3.3165758 c 6.69783,4.2623 12.78677,14.9179002 14.309,24.9647002 0.60889,3.0444 0.60889,70.631605 0,71.240505 0,0.30445 -1.52223,0.913339 -3.04447,1.217779 -7.61117,1.82669 -14.309,9.43786 -16.44013,18.87571 -1.82668,7.30672 -1.52223,17.35347 1.21779,24.66018 2.43558,7.00228 9.43785,14.00456 14.91789,15.22234 l 3.65337,0.91335 0,36.22916 c 0.30444,52.97376 0,70.93612 -0.30445,74.89393 -0.91334,6.39338 -4.87115,15.83123 -8.52451,20.09348 -6.08894,6.69783 -10.35119,7.61117 -30.14023,7.91562 -9.43785,0 -17.65792,0 -17.65792,-0.30445 -0.30444,-0.30444 -0.30444,-8.22006 -0.60889,-17.96236 0,-9.43785 -0.30445,-18.2668 -0.91334,-19.48459 -0.60889,-1.82668 -1.82668,-2.13113 -5.1756,-2.13113 -8.22006,0 -7.91562,-0.30445 -7.91562,21.00683 l 0,18.8757 -28.618,0 -0.30444,-6.69783 c 0,-3.34891 0,-11.56898 0.30444,-17.65791 0,-14.00456 -0.60889,-15.52679 -7.61116,-15.52679 -3.95781,0 -5.1756,0.30445 -5.7845,2.43557 -0.60889,1.21779 -0.91333,10.35119 -0.91333,19.78905 l 0,17.65791 -28.618,0 0,-11.56898 0,-18.2668 c 0,-8.52452 -0.91335,-10.04675 -6.69783,-10.04675 -7.30673,0 -7.61117,0.6089 -7.61117,21.92017 l 0,17.96236 -28.618,0 0,-14.00455 c -0.30444,-7.61117 0,-16.13568 0,-18.57125 0.30445,-5.48005 -1.21779,-7.00228 -7.00227,-7.30673 -7.30673,-0.30445 -7.30673,0 -7.30673,21.00683 l 0,18.57125 -7.91561,0.6089 -14.30901,0 -6.39338,-0.6089 0,-18.26681 c 0,-12.78676 -0.30445,-18.8757 -0.91334,-19.78904 -0.60889,-0.91333 -3.34892,-1.52223 -6.39338,-1.52223 -3.95781,0 -5.1756,0.30445 -6.08894,2.43557 -0.30444,1.21779 -0.91334,10.35119 -0.91334,19.78905 l 0,17.65791 -14.309,0 c -10.65564,0 -14.309,-0.60889 -14.309,-1.82668 l 0,-17.35346 c 0,-8.82896 -0.30444,-17.04903 -0.91334,-18.26682 -0.60889,-2.13112 -1.82668,-2.43557 -5.17559,-2.43557 -8.22006,0 -8.22006,-0.30445 -8.22006,21.00683 l 0,18.57125 -9.43786,0.6089 -14.30899,0 -4.5667,-0.6089 0,-17.96236 c 0,-21.00682 -0.30445,-21.61572 -7.61118,-21.61572 -3.9578,0 -5.17559,0.30445 -5.78448,2.43557 -0.6089,1.21779 -0.91335,10.35119 -0.91335,19.78905 l 0,17.65791 -28.617996,0 0,-18.57126 c 0,-12.78676 -0.30444,-18.8757 -1.21778,-19.78904 -0.6089,-0.91333 -3.04447,-1.52223 -5.78449,-1.52223 -7.00228,0 -7.30672,0.6089 -7.30672,21.31127 0,9.7423 0,17.65792 -0.30445,17.96237 -0.30445,0.30444 -8.22006,0.60889 -17.35347,0.60889 -21.92017,0 -26.48687,-1.52223 -32.8802495,-10.96008 -6.39339002,-9.43786 -6.39339002,-7.00228 -6.39339002,-71.24055 -0.30444,-46.58037 -0.30444,-57.54046 0.60890002,-57.54046 8.22006,-0.60889 16.4401195,-8.82896 19.1801495,-19.18014 1.52223,-6.39339 1.21779,-17.04902 -0.6089,-23.13796 -2.74001,-8.52451 -11.5689695,-17.35347 -17.9623495,-17.35347 -1.52224002,0 -1.52224002,-1.826679 -1.52224002,-35.315819 0,-30.444675 0.30444,-35.924775 1.52224002,-41.404775 2.13112,-8.8289 6.08893,-14.6134002 11.8734195,-18.8757002 3.9578,-2.74 6.08893,-3.3489 13.39566,-3.65330003 15.83123,-0.9134 145.525556,-0.9134 264.868706,-0.3045 z M 301.2501,82.777211 c -0.6089,1.21778 -0.91335,24.660179 -0.91335,57.540439 0,49.01593 0,55.71376 1.2178,57.54044 1.21778,1.82668 5.17559,1.82668 27.4002,1.82668 22.22462,0 25.87798,0 27.09577,-1.82668 1.21779,-1.82668 1.52223,-8.82895 1.52223,-57.84489 0,-49.015929 -0.30444,-56.018209 -1.52223,-57.844889 -2.13112,-2.74002 -53.58264,-2.43557 -54.80042,0.6089 z m -113.86311,-0.6089 c -1.21778,1.82668 -1.52223,9.13341 -1.52223,57.844889 0,49.32038 0.30445,56.01821 1.52223,57.84489 2.13113,3.04448 52.36485,2.74003 54.49598,0 0.91335,-1.82668 1.21779,-9.1334 1.21779,-57.84489 0,-48.407039 -0.30444,-56.018209 -1.52224,-57.844889 -1.82668,-2.74002 -52.0604,-2.74002 -54.19153,0 z M 73.523904,81.254971 c -0.91334,0.60889 -0.91334,1.82668 -0.6089,2.74002 0.30445,1.21779 0.30445,1.21779 -0.30444,0.6089 -0.91335,-0.6089 -0.91335,12.78676 -0.91335,55.409309 0,48.40704 0.30445,56.32266 1.21779,57.84489 2.13113,3.04448 52.364846,2.74003 54.495976,0 1.21778,-1.82668 1.21778,-8.52451 1.21778,-57.84489 0,-48.711479 0,-56.018209 -1.21778,-57.844889 -1.21779,-1.82668 -5.1756,-1.82668 -27.09577,-1.82668 -14.004546,0 -26.182416,0.30445 -26.791306,0.91334 z"></path>
</symbol>

<symbol id="cachify-icon-db" viewBox="0 0 430 300">
<path class="path1" d="M 5.2707,197.95216 C 2.0903,193.40872 0.5,193.63502 0.5,198.63303 l 0,34.07666 c 0,16.81101 11.8133,32.14551 35.4397,46.00351 23.62637,13.8579 51.56924,20.7868 83.8286,20.7868 31.80477,0 59.63416,-6.9289 83.48783,-20.7868 23.85367,-13.858 35.78051,-29.1925 35.78051,-46.00351 l 0,-34.07666 c 0,-1.81731 -0.45425,-2.95309 -1.36307,-3.40733 -0.90882,-0.45425 -2.0446,0.45457 -3.40766,2.72646 -7.26958,11.81336 -21.46831,21.58212 -42.59584,29.30628 -21.12753,7.72416 -45.09467,11.58607 -71.90176,11.58607 -26.8071,0 -50.77425,-3.86191 -71.90178,-11.58607 C 26.739,219.53428 12.5403,209.76552 5.2707,197.95216 z M 4.5892,111.3964 c -1.8173,-3.63496 -3.1797,-3.63496 -4.0885,0 l 0,39.52894 c 0,15.44797 11.586,28.39711 34.75815,38.8474 23.17212,10.45029 51.34229,15.67526 84.51014,15.67526 32.71359,0 60.76993,-5.22497 84.16935,-15.67526 23.39943,-10.45029 35.09897,-23.39943 35.09897,-38.8474 l 0,-39.52894 c 0,-4.54344 -1.59035,-4.54344 -4.77073,0 -6.81534,10.45029 -20.90024,18.96946 -42.25507,25.5575 -21.35481,6.58804 -45.43578,9.88224 -72.24287,9.88224 -26.80709,0 -50.88805,-3.29419 -72.24288,-9.88224 C 26.17093,130.36586 11.8587,121.84669 4.5892,111.3964 z M 119.76899,-0.37507 c -32.71361,0 -60.76995,4.42998 -84.16938,13.2899 C 12.2002,21.77477 0.5007,32.33854 0.5007,44.60614 l 0,21.80907 c 0,13.17642 11.6995,24.42172 35.09891,33.73589 23.39943,9.31418 51.45577,13.97143 84.16938,13.97143 32.71359,0 60.76993,-4.65725 84.16935,-13.97143 23.39943,-9.31417 35.09897,-20.55947 35.09897,-33.73589 l 0,-21.80907 c 0,-12.2676 -11.69954,-22.83137 -35.09897,-31.69131 -23.39942,-8.85992 -51.45576,-13.2899 -84.16936,-13.2899 z"></path>
</symbol>

<symbol id="cachify-icon-memcached" viewBox="0 0 430 300">
<path class="path1" d="M 291.81225,0.57657577 C 403.84867,1.1854758 410.85094,1.1854758 414.19986,3.3165758 c 6.69783,4.2623 12.78677,14.9179002 14.309,24.9647002 0.60889,3.0444 0.60889,70.631605 0,71.240505 0,0.30445 -1.52223,0.913339 -3.04447,1.217779 -7.61117,1.82669 -14.309,9.43786 -16.44013,18.87571 -1.82668,7.30672 -1.52223,17.35347 1.21779,24.66018 2.43558,7.00228 9.43785,14.00456 14.91789,15.22234 l 3.65337,0.91335 0,36.22916 c 0.30444,52.97376 0,70.93612 -0.30445,74.89393 -0.91334,6.39338 -4.87115,15.83123 -8.52451,20.09348 -6.08894,6.69783 -10.35119,7.61117 -30.14023,7.91562 -9.43785,0 -17.65792,0 -17.65792,-0.30445 -0.30444,-0.30444 -0.30444,-8.22006 -0.60889,-17.96236 0,-9.43785 -0.30445,-18.2668 -0.91334,-19.48459 -0.60889,-1.82668 -1.82668,-2.13113 -5.1756,-2.13113 -8.22006,0 -7.91562,-0.30445 -7.91562,21.00683 l 0,18.8757 -28.618,0 -0.30444,-6.69783 c 0,-3.34891 0,-11.56898 0.30444,-17.65791 0,-14.00456 -0.60889,-15.52679 -7.61116,-15.52679 -3.95781,0 -5.1756,0.30445 -5.7845,2.43557 -0.60889,1.21779 -0.91333,10.35119 -0.91333,19.78905 l 0,17.65791 -28.618,0 0,-11.56898 0,-18.2668 c 0,-8.52452 -0.91335,-10.04675 -6.69783,-10.04675 -7.30673,0 -7.61117,0.6089 -7.61117,21.92017 l 0,17.96236 -28.618,0 0,-14.00455 c -0.30444,-7.61117 0,-16.13568 0,-18.57125 0.30445,-5.48005 -1.21779,-7.00228 -7.00227,-7.30673 -7.30673,-0.30445 -7.30673,0 -7.30673,21.00683 l 0,18.57125 -7.91561,0.6089 -14.30901,0 -6.39338,-0.6089 0,-18.26681 c 0,-12.78676 -0.30445,-18.8757 -0.91334,-19.78904 -0.60889,-0.91333 -3.34892,-1.52223 -6.39338,-1.52223 -3.95781,0 -5.1756,0.30445 -6.08894,2.43557 -0.30444,1.21779 -0.91334,10.35119 -0.91334,19.78905 l 0,17.65791 -14.309,0 c -10.65564,0 -14.309,-0.60889 -14.309,-1.82668 l 0,-17.35346 c 0,-8.82896 -0.30444,-17.04903 -0.91334,-18.26682 -0.60889,-2.13112 -1.82668,-2.43557 -5.17559,-2.43557 -8.22006,0 -8.22006,-0.30445 -8.22006,21.00683 l 0,18.57125 -9.43786,0.6089 -14.30899,0 -4.5667,-0.6089 0,-17.96236 c 0,-21.00682 -0.30445,-21.61572 -7.61118,-21.61572 -3.9578,0 -5.17559,0.30445 -5.78448,2.43557 -0.6089,1.21779 -0.91335,10.35119 -0.91335,19.78905 l 0,17.65791 -28.617996,0 0,-18.57126 c 0,-12.78676 -0.30444,-18.8757 -1.21778,-19.78904 -0.6089,-0.91333 -3.04447,-1.52223 -5.78449,-1.52223 -7.00228,0 -7.30672,0.6089 -7.30672,21.31127 0,9.7423 0,17.65792 -0.30445,17.96237 -0.30445,0.30444 -8.22006,0.60889 -17.35347,0.60889 -21.92017,0 -26.48687,-1.52223 -32.8802495,-10.96008 -6.39339002,-9.43786 -6.39339002,-7.00228 -6.39339002,-71.24055 -0.30444,-46.58037 -0.30444,-57.54046 0.60890002,-57.54046 8.22006,-0.60889 16.4401195,-8.82896 19.1801495,-19.18014 1.52223,-6.39339 1.21779,-17.04902 -0.6089,-23.13796 -2.74001,-8.52451 -11.5689695,-17.35347 -17.9623495,-17.35347 -1.52224002,0 -1.52224002,-1.826679 -1.52224002,-35.315819 0,-30.444675 0.30444,-35.924775 1.52224002,-41.404775 2.13112,-8.8289 6.08893,-14.6134002 11.8734195,-18.8757002 3.9578,-2.74 6.08893,-3.3489 13.39566,-3.65330003 15.83123,-0.9134 145.525556,-0.9134 264.868706,-0.3045 z M 301.2501,82.777211 c -0.6089,1.21778 -0.91335,24.660179 -0.91335,57.540439 0,49.01593 0,55.71376 1.2178,57.54044 1.21778,1.82668 5.17559,1.82668 27.4002,1.82668 22.22462,0 25.87798,0 27.09577,-1.82668 1.21779,-1.82668 1.52223,-8.82895 1.52223,-57.84489 0,-49.015929 -0.30444,-56.018209 -1.52223,-57.844889 -2.13112,-2.74002 -53.58264,-2.43557 -54.80042,0.6089 z m -113.86311,-0.6089 c -1.21778,1.82668 -1.52223,9.13341 -1.52223,57.844889 0,49.32038 0.30445,56.01821 1.52223,57.84489 2.13113,3.04448 52.36485,2.74003 54.49598,0 0.91335,-1.82668 1.21779,-9.1334 1.21779,-57.84489 0,-48.407039 -0.30444,-56.018209 -1.52224,-57.844889 -1.82668,-2.74002 -52.0604,-2.74002 -54.19153,0 z M 73.523904,81.254971 c -0.91334,0.60889 -0.91334,1.82668 -0.6089,2.74002 0.30445,1.21779 0.30445,1.21779 -0.30444,0.6089 -0.91335,-0.6089 -0.91335,12.78676 -0.91335,55.409309 0,48.40704 0.30445,56.32266 1.21779,57.84489 2.13113,3.04448 52.364846,2.74003 54.495976,0 1.21778,-1.82668 1.21778,-8.52451 1.21778,-57.84489 0,-48.711479 0,-56.018209 -1.21778,-57.844889 -1.21779,-1.82668 -5.1756,-1.82668 -27.09577,-1.82668 -14.004546,0 -26.182416,0.30445 -26.791306,0.91334 z"></path>
</symbol>
</defs>
</svg>